<svg id="svg" version="1.1" xmlns="http://www.w3.org/2000/svg" xmlns:xlink="http://www.w3.org/1999/xlink" width="400" height="400" viewBox="0, 0, 400,400"><g id="svgg"><path id="path0" d="M0.000 200.000 L 0.000 400.000 200.000 400.000 L 400.000 400.000 400.000 200.000 L 400.000 0.000 200.000 0.000 L 0.000 0.000 0.000 200.000 M168.373 126.786 C 172.017 128.645,172.688 132.486,170.473 138.800 L 169.000 143.000 167.100 143.122 C 164.778 143.271,164.788 143.380,166.600 138.000 C 168.297 132.961,168.347 131.883,166.942 130.581 L 165.883 129.600 111.442 129.602 C 52.312 129.605,55.149 129.487,52.238 132.051 C 49.585 134.386,50.601 131.612,32.536 185.798 C 15.344 237.363,15.280 237.584,17.032 239.230 L 18.065 240.200 72.532 240.200 C 131.470 240.200,128.339 240.316,131.525 238.009 C 133.510 236.571,134.014 235.586,136.438 228.426 C 138.463 222.443,138.729 222.012,140.400 222.012 C 142.640 222.012,142.640 222.277,140.393 229.054 C 137.352 238.228,135.663 240.694,130.904 242.913 L 129.000 243.800 74.200 243.923 C 35.629 244.010,18.797 243.917,17.365 243.609 C 14.096 242.907,12.000 240.238,12.000 236.779 C 12.000 235.149,44.896 135.748,46.432 132.738 C 47.515 130.615,50.011 128.266,52.502 127.024 L 54.557 126.000 110.694 126.000 C 165.719 126.000,166.862 126.016,168.373 126.786 M186.827 145.600 C 187.034 145.600,187.235 151.390,187.295 159.100 L 187.400 172.600 199.700 172.706 L 212.000 172.812 212.000 173.963 C 212.000 174.644,211.741 175.214,211.367 175.357 C 210.541 175.674,185.459 175.674,184.633 175.357 C 184.072 175.142,184.000 173.447,184.000 160.387 C 184.000 144.586,183.961 144.883,185.933 145.448 C 186.226 145.531,186.628 145.600,186.827 145.600 M233.433 145.704 C 233.483 145.757,235.402 149.220,237.696 153.400 C 239.990 157.580,243.535 164.020,245.572 167.711 C 249.295 174.456,249.631 175.600,247.889 175.600 C 246.541 175.600,245.812 174.909,244.303 172.200 L 242.966 169.800 231.594 169.800 L 220.221 169.800 218.730 172.364 C 217.129 175.119,216.644 175.588,215.400 175.588 C 213.420 175.588,213.505 175.070,216.325 169.969 C 219.767 163.744,225.475 153.366,227.198 150.200 C 229.443 146.075,229.739 145.634,230.378 145.447 C 230.942 145.282,233.213 145.473,233.433 145.704 M259.320 146.100 C 259.851 146.595,262.314 150.150,264.794 154.000 C 267.275 157.850,270.675 163.130,272.352 165.734 C 274.028 168.338,275.683 170.837,276.028 171.289 C 276.630 172.076,276.897 171.736,282.565 162.955 C 294.986 143.713,294.107 144.810,296.600 145.436 L 297.600 145.687 297.600 160.416 C 297.600 174.795,297.581 175.152,296.800 175.400 C 294.396 176.163,294.422 176.290,294.306 163.075 L 294.200 151.000 289.800 157.718 C 274.787 180.638,277.762 179.963,266.780 162.941 C 262.501 156.309,258.865 150.965,258.700 151.065 C 258.535 151.165,258.400 156.642,258.400 163.236 C 258.400 176.257,258.446 176.000,256.199 175.436 L 255.200 175.185 255.200 160.612 C 255.200 147.156,255.254 146.009,255.900 145.632 C 257.039 144.969,258.291 145.140,259.320 146.100 M311.920 145.680 C 312.276 146.036,312.400 149.914,312.400 160.653 C 312.400 176.578,312.464 176.182,310.000 175.400 C 309.005 175.084,308.712 145.864,309.700 145.465 C 310.587 145.107,311.428 145.188,311.920 145.680 M335.940 153.727 C 351.383 169.626,352.931 171.166,353.263 170.961 C 353.449 170.846,353.600 165.114,353.600 158.223 C 353.600 145.717,353.602 145.693,354.465 145.467 C 356.671 144.890,356.800 145.353,356.800 153.814 C 356.800 160.531,357.055 162.728,357.667 161.286 C 357.796 160.981,384.311 146.314,385.683 145.789 C 386.197 145.592,386.435 145.800,386.642 146.626 C 387.023 148.143,386.511 148.786,383.657 150.375 L 381.188 151.749 381.294 163.175 L 381.400 174.600 383.741 175.843 C 386.245 177.173,386.788 177.735,386.788 179.000 C 386.788 181.020,386.296 180.886,378.975 176.868 C 375.029 174.702,368.740 171.258,365.000 169.214 C 361.260 167.171,358.029 165.342,357.820 165.149 C 356.952 164.352,356.800 165.034,356.800 169.720 C 356.800 175.197,356.635 175.603,354.420 175.594 C 352.591 175.586,353.952 176.826,340.050 162.500 C 333.379 155.625,327.759 150.000,327.560 150.000 C 327.354 150.000,327.200 155.377,327.200 162.573 C 327.200 176.361,327.235 176.173,324.800 175.400 C 323.630 175.029,323.533 145.789,324.700 145.464 C 327.045 144.810,327.862 145.410,335.940 153.727 M226.900 157.394 C 224.425 161.887,222.400 165.751,222.400 165.981 C 222.400 166.261,225.459 166.400,231.600 166.400 C 236.725 166.400,240.800 166.242,240.800 166.043 C 240.800 165.847,240.009 164.272,239.042 162.543 C 236.396 157.814,233.669 152.806,232.703 150.900 C 231.558 148.642,231.985 148.164,226.900 157.394 M165.600 152.725 C 165.600 153.546,163.451 160.127,162.734 161.500 C 162.175 162.572,159.443 162.810,159.063 161.819 C 158.817 161.180,161.303 153.440,162.038 152.554 C 162.759 151.686,165.600 151.822,165.600 152.725 M369.228 158.323 C 364.954 160.693,361.394 162.818,361.318 163.047 C 361.201 163.396,377.025 172.400,377.755 172.400 C 377.890 172.400,378.000 168.260,378.000 163.200 C 378.000 156.103,377.886 154.002,377.500 154.008 C 377.225 154.012,373.503 155.954,369.228 158.323 M159.200 171.922 C 159.200 174.924,157.076 178.800,155.431 178.800 C 153.052 178.800,153.048 178.049,155.390 171.700 C 155.707 170.842,159.200 171.046,159.200 171.922 M153.504 188.100 C 153.785 188.449,153.527 189.691,152.653 192.200 L 151.400 195.800 149.500 195.922 C 147.233 196.067,147.240 196.103,148.646 191.801 C 149.777 188.337,150.371 187.600,152.027 187.600 C 152.618 187.600,153.283 187.825,153.504 188.100 M179.952 202.009 C 189.720 203.038,193.106 206.694,192.743 215.821 C 192.454 223.086,189.273 226.126,180.800 227.234 C 177.810 227.625,164.379 227.720,163.433 227.357 C 162.773 227.104,162.420 202.513,163.067 201.867 C 163.474 201.459,175.713 201.563,179.952 202.009 M207.367 201.843 C 208.488 202.273,208.307 227.049,207.181 227.406 C 205.272 228.012,205.200 227.550,205.200 214.631 C 205.200 201.459,205.271 201.038,207.367 201.843 M243.800 202.142 C 248.731 203.456,252.739 207.213,252.324 210.131 C 252.121 211.556,250.136 211.553,249.523 210.126 C 245.899 201.691,226.403 202.121,224.024 210.689 C 223.476 212.662,223.488 216.978,224.046 219.000 C 226.347 227.329,246.526 227.290,249.392 218.951 C 250.137 216.784,250.177 216.800,243.984 216.800 L 238.415 216.800 238.153 215.757 C 237.980 215.067,238.079 214.596,238.446 214.363 C 239.067 213.970,251.180 213.864,252.167 214.243 C 253.089 214.597,253.120 226.992,252.200 227.345 C 250.996 227.807,250.400 227.170,250.400 225.424 C 250.400 223.273,250.169 223.067,249.029 224.207 C 243.900 229.336,229.219 229.165,223.727 223.912 C 219.599 219.965,219.648 209.579,223.813 205.413 C 227.164 202.063,237.285 200.406,243.800 202.142 M267.986 202.374 C 268.244 202.857,268.400 207.571,268.400 214.925 C 268.400 227.528,268.323 228.010,266.419 227.406 C 265.594 227.144,265.064 202.669,265.867 201.867 C 266.399 201.335,267.581 201.618,267.986 202.374 M304.414 202.426 C 305.318 204.116,304.416 204.400,298.151 204.400 L 292.400 204.400 292.400 215.757 C 292.400 227.971,292.389 228.031,290.350 227.384 C 289.660 227.165,289.606 226.428,289.506 215.875 L 289.400 204.600 283.539 204.490 C 277.289 204.372,276.664 204.148,277.616 202.371 C 278.283 201.125,303.745 201.177,304.414 202.426 M325.099 201.929 C 326.153 202.598,339.218 226.941,338.700 227.270 C 337.405 228.092,336.139 227.446,335.136 225.451 C 333.518 222.229,334.139 222.400,324.014 222.400 C 313.939 222.400,314.355 222.294,312.659 225.279 C 311.391 227.509,311.065 227.753,309.777 227.430 C 308.494 227.108,308.510 227.022,310.540 223.349 C 311.498 221.617,314.399 216.330,316.988 211.600 C 322.720 201.127,323.108 200.665,325.099 201.929 M351.186 202.374 C 351.442 202.852,351.600 207.276,351.600 213.974 L 351.600 224.800 361.773 224.800 C 371.674 224.800,371.953 224.822,372.206 225.619 C 372.816 227.540,372.309 227.620,360.246 227.506 L 349.000 227.400 348.894 215.004 C 348.836 208.186,348.875 202.381,348.982 202.104 C 349.279 201.330,350.722 201.506,351.186 202.374 M165.780 204.908 C 165.673 205.187,165.633 209.732,165.693 215.008 L 165.800 224.600 172.400 224.717 C 186.547 224.968,189.827 222.983,189.781 214.200 C 189.755 209.198,188.211 206.687,184.488 205.594 C 180.683 204.477,166.150 203.944,165.780 204.908 M148.000 205.530 C 148.000 206.509,146.130 211.961,145.557 212.651 C 145.039 213.276,143.286 213.369,142.414 212.817 C 141.780 212.416,143.005 207.665,144.249 205.700 C 145.005 204.505,148.000 204.369,148.000 205.530 M322.665 207.300 C 318.607 214.422,316.041 219.342,316.227 219.643 C 316.348 219.840,319.878 220.000,324.070 220.000 C 333.135 220.000,332.698 220.955,327.740 211.981 C 323.776 204.806,323.979 204.993,322.665 207.300 " stroke="none" fill="#fbfbfb" fill-rule="evenodd"></path><path id="path1" d="M54.169 126.930 C 47.625 129.427,48.886 126.480,29.566 184.400 C 10.216 242.411,10.991 239.205,15.581 242.299 L 16.918 243.200 72.648 243.200 L 128.377 243.200 130.689 242.180 C 135.253 240.166,137.004 237.591,139.996 228.491 C 141.836 222.896,141.826 222.056,139.923 222.533 C 139.126 222.733,138.729 223.554,137.241 228.084 C 134.385 236.777,133.289 238.331,128.819 240.029 C 126.853 240.776,125.129 240.800,72.356 240.800 L 17.920 240.800 16.560 239.440 C 14.582 237.462,13.791 240.222,32.089 185.332 L 48.978 134.670 50.890 132.578 C 54.469 128.661,48.773 129.016,110.200 128.880 C 168.551 128.751,166.653 128.684,168.018 130.922 C 169.043 132.603,169.031 132.741,167.400 137.772 C 165.699 143.019,165.703 142.880,167.276 142.725 C 168.503 142.605,168.602 142.456,169.871 138.800 C 172.012 132.630,171.539 129.673,168.031 127.310 L 166.682 126.400 111.041 126.430 C 69.481 126.453,55.088 126.580,54.169 126.930 M184.895 160.472 L 185.000 175.000 198.000 175.000 L 211.000 175.000 211.127 174.106 L 211.254 173.212 199.127 173.106 L 187.000 173.000 186.800 159.600 L 186.600 146.200 185.695 146.072 L 184.790 145.943 184.895 160.472 M230.047 146.544 C 229.799 146.842,227.733 150.487,225.455 154.644 C 223.178 158.800,219.844 164.871,218.046 168.135 C 214.296 174.943,214.275 175.000,215.560 175.000 C 216.321 175.000,216.792 174.502,217.833 172.600 C 218.554 171.280,219.344 169.975,219.588 169.700 C 219.924 169.322,222.846 169.200,231.589 169.200 L 243.146 169.200 243.921 170.300 C 244.347 170.905,245.087 172.174,245.566 173.119 C 246.469 174.905,247.192 175.442,248.177 175.064 C 248.622 174.893,248.134 173.711,246.053 169.921 C 244.567 167.215,241.135 160.950,238.425 156.000 C 235.716 151.050,233.320 146.775,233.101 146.500 C 232.570 145.834,230.613 145.862,230.047 146.544 M256.000 160.376 C 256.000 174.601,256.079 175.451,257.358 174.961 C 257.910 174.749,258.002 173.173,258.094 162.293 C 258.209 148.866,258.283 148.481,260.175 151.516 C 260.821 152.552,263.798 157.180,266.791 161.800 C 269.783 166.420,272.820 171.131,273.538 172.269 C 276.312 176.665,276.869 176.441,281.663 169.011 C 289.919 156.215,294.225 149.832,294.700 149.687 C 295.093 149.566,295.200 152.240,295.200 162.143 C 295.200 174.636,295.287 175.449,296.569 174.957 C 297.143 174.736,297.199 173.225,297.105 160.455 L 297.000 146.200 295.613 146.200 C 294.063 146.200,294.559 145.520,282.644 163.999 C 277.813 171.490,276.603 173.142,276.227 172.757 C 276.142 172.671,273.388 168.460,270.107 163.400 C 257.649 144.190,258.971 146.000,257.398 146.000 L 256.000 146.000 256.000 160.376 M309.782 146.502 C 309.676 146.779,309.637 153.304,309.695 161.002 L 309.800 175.000 310.800 175.000 L 311.800 175.000 311.912 161.400 C 311.973 153.920,311.925 147.395,311.804 146.900 C 311.566 145.921,310.115 145.636,309.782 146.502 M324.895 160.500 C 324.986 173.076,325.080 175.000,325.600 175.000 C 326.119 175.000,326.214 173.231,326.305 161.900 C 326.424 147.168,326.422 147.177,329.211 150.300 C 337.856 159.982,353.433 175.231,354.566 175.120 L 355.800 175.000 355.800 160.600 L 355.800 146.200 354.900 146.072 L 354.000 145.944 354.000 158.949 C 354.000 166.101,353.848 172.047,353.662 172.162 C 353.349 172.355,350.489 169.514,333.651 152.290 C 328.104 146.617,327.368 146.000,326.146 146.000 L 324.790 146.000 324.895 160.500 M384.200 147.164 C 383.540 147.552,379.940 149.549,376.200 151.600 C 372.460 153.651,368.680 155.728,367.800 156.216 C 366.920 156.703,364.490 158.045,362.400 159.197 C 355.297 163.112,355.319 163.178,365.600 168.812 C 369.890 171.163,376.190 174.627,379.600 176.510 C 383.010 178.392,385.953 179.786,386.140 179.606 C 386.880 178.896,385.883 177.734,383.390 176.400 C 380.152 174.668,380.353 175.633,380.488 162.420 L 380.600 151.439 383.136 150.006 C 385.674 148.572,386.658 147.541,386.198 146.797 C 385.876 146.276,385.630 146.321,384.200 147.164 M233.120 150.500 C 238.375 159.863,241.600 165.957,241.600 166.525 C 241.600 167.261,221.894 167.600,221.444 166.871 C 221.229 166.523,221.403 166.146,223.795 161.765 C 228.668 152.838,231.260 148.400,231.601 148.400 C 231.788 148.400,232.472 149.345,233.120 150.500 M162.396 152.900 C 162.394 152.955,161.764 154.798,160.996 156.996 C 159.312 161.815,159.322 161.600,160.786 161.600 C 162.166 161.600,162.373 161.289,163.784 157.086 C 165.106 153.147,165.091 152.800,163.600 152.800 C 162.940 152.800,162.398 152.845,162.396 152.900 M378.400 163.000 C 378.400 169.294,378.252 173.200,378.014 173.200 C 377.801 173.200,375.056 171.785,371.914 170.055 C 368.771 168.325,364.940 166.220,363.400 165.377 C 360.823 163.967,360.022 163.355,360.006 162.783 C 360.003 162.664,360.945 162.086,362.100 161.499 C 364.122 160.472,365.724 159.591,374.000 154.958 C 376.090 153.789,377.935 152.824,378.100 152.816 C 378.265 152.807,378.400 157.390,378.400 163.000 M156.105 172.100 C 155.195 173.257,153.989 177.746,154.500 178.070 C 155.962 178.998,156.653 178.385,157.774 175.163 C 158.842 172.097,157.722 170.042,156.105 172.100 M149.433 191.501 C 148.100 195.504,148.110 195.679,149.665 195.525 C 150.819 195.411,151.007 195.185,151.809 192.950 C 153.416 188.472,153.416 188.400,151.840 188.400 C 150.481 188.400,150.454 188.435,149.433 191.501 M232.200 202.377 C 224.463 203.616,221.460 207.024,221.432 214.600 C 221.399 223.456,225.136 226.700,235.826 227.098 C 241.951 227.327,245.289 226.479,248.137 223.972 C 250.320 222.051,250.609 222.134,250.961 224.791 C 251.144 226.168,251.412 226.800,251.814 226.800 C 252.303 226.800,252.400 225.804,252.400 220.800 L 252.400 214.800 245.367 214.800 C 239.918 214.800,238.371 214.913,238.500 215.300 C 238.620 215.663,240.276 215.830,244.533 215.911 L 250.400 216.021 250.400 217.162 C 250.400 226.833,228.473 229.275,223.847 220.120 C 222.980 218.405,222.947 211.502,223.796 209.471 C 226.988 201.831,245.814 201.379,249.626 208.850 C 250.799 211.149,252.405 210.922,251.424 208.596 C 249.335 203.638,241.056 200.960,232.200 202.377 M163.381 202.905 C 163.275 203.182,163.235 208.717,163.294 215.205 L 163.400 227.000 168.800 227.122 C 186.817 227.529,192.106 224.681,192.103 214.573 C 192.101 207.370,189.956 204.692,182.800 202.961 C 179.763 202.226,163.659 202.180,163.381 202.905 M205.880 202.653 C 205.459 203.074,205.540 226.716,205.964 226.978 C 207.517 227.938,207.615 227.153,207.506 214.660 C 207.398 202.405,207.247 201.287,205.880 202.653 M266.267 202.667 C 265.476 203.457,265.992 226.800,266.800 226.800 C 267.583 226.800,267.600 226.533,267.600 214.600 C 267.600 202.398,267.493 201.440,266.267 202.667 M278.075 203.094 C 278.196 203.724,278.842 203.812,284.105 203.911 C 287.347 203.972,290.035 204.062,290.078 204.111 C 290.121 204.160,290.256 209.330,290.378 215.600 C 290.568 225.368,290.686 227.000,291.200 227.000 C 291.717 227.000,291.815 225.410,291.906 215.511 L 292.012 204.021 297.906 203.911 C 302.829 203.818,303.800 203.701,303.800 203.200 C 303.800 202.681,302.050 202.586,290.870 202.494 C 278.699 202.395,277.947 202.430,278.075 203.094 M321.871 204.100 C 313.067 219.647,309.516 226.476,309.993 226.945 C 310.527 227.469,311.145 226.810,312.890 223.849 L 313.980 222.000 323.690 222.006 C 334.553 222.013,333.846 221.851,335.430 224.695 C 336.072 225.847,336.839 226.883,337.134 226.996 C 338.323 227.452,338.364 226.634,337.250 224.669 C 335.770 222.058,335.344 221.288,330.800 213.000 C 325.704 203.707,325.570 203.468,325.108 202.900 C 324.239 201.830,322.869 202.337,321.871 204.100 M349.467 202.667 C 349.320 202.813,349.200 208.300,349.200 214.859 L 349.200 226.785 350.100 227.005 C 352.355 227.556,371.800 227.014,371.800 226.400 C 371.800 225.885,370.355 225.785,361.619 225.693 C 354.086 225.614,351.357 225.458,351.125 225.093 C 350.953 224.822,350.809 219.605,350.806 213.500 C 350.800 202.424,350.680 201.453,349.467 202.667 M182.480 204.449 C 188.602 205.744,190.546 208.401,190.334 215.182 C 190.118 222.065,187.964 224.178,180.173 225.148 C 175.233 225.764,165.906 225.746,165.280 225.120 C 164.760 224.600,164.557 204.776,165.067 204.267 C 165.516 203.817,180.224 203.971,182.480 204.449 M328.400 211.869 C 333.562 221.431,334.115 220.400,323.828 220.400 C 317.490 220.400,315.200 220.275,315.200 219.930 C 315.200 219.492,322.494 205.968,323.294 204.924 C 323.991 204.013,324.622 204.871,328.400 211.869 M144.590 206.100 C 144.489 206.375,143.962 207.915,143.419 209.523 L 142.432 212.446 143.881 212.323 C 145.329 212.200,147.196 208.812,147.199 206.300 C 147.200 205.465,144.890 205.288,144.590 206.100 " stroke="none" fill="#101010" fill-rule="evenodd"></path><path id="path2" d="M255.782 146.102 C 255.676 146.378,255.637 152.993,255.695 160.802 L 255.801 175.000 256.000 160.300 C 256.110 152.215,256.149 145.600,256.087 145.600 C 256.026 145.600,255.888 145.826,255.782 146.102 M356.000 160.320 L 356.199 175.000 356.305 160.625 C 356.363 152.719,356.273 146.113,356.105 145.945 C 355.937 145.777,355.890 152.245,356.000 160.320 M324.087 160.676 C 324.039 168.418,324.135 174.836,324.300 174.939 C 324.573 175.108,324.566 164.238,324.285 151.600 C 324.224 148.850,324.135 152.934,324.087 160.676 M329.400 151.200 C 330.259 152.080,331.052 152.800,331.162 152.800 C 331.272 152.800,330.659 152.080,329.800 151.200 C 328.941 150.320,328.148 149.600,328.038 149.600 C 327.928 149.600,328.541 150.320,329.400 151.200 M340.600 159.200 C 341.459 160.080,342.252 160.800,342.362 160.800 C 342.472 160.800,341.859 160.080,341.000 159.200 C 340.141 158.320,339.348 157.600,339.238 157.600 C 339.128 157.600,339.741 158.320,340.600 159.200 M241.200 166.333 C 241.200 166.674,238.571 166.825,231.500 166.892 L 221.800 166.985 231.373 167.100 C 240.308 167.207,242.347 167.013,241.473 166.140 C 241.323 165.990,241.200 166.077,241.200 166.333 M166.880 202.298 C 168.794 202.371,172.034 202.371,174.080 202.298 C 176.126 202.226,174.560 202.166,170.600 202.165 C 166.640 202.165,164.966 202.224,166.880 202.298 M284.300 202.299 C 287.875 202.366,293.725 202.366,297.300 202.299 C 300.875 202.233,297.950 202.179,290.800 202.179 C 283.650 202.179,280.725 202.233,284.300 202.299 M207.778 214.800 C 207.778 221.510,207.832 224.255,207.899 220.900 C 207.966 217.545,207.966 212.055,207.899 208.700 C 207.832 205.345,207.778 208.090,207.778 214.800 M289.776 215.800 C 289.776 221.960,289.832 224.424,289.899 221.276 C 289.967 218.127,289.967 213.087,289.899 210.076 C 289.831 207.064,289.776 209.640,289.776 215.800 M192.514 214.600 C 192.517 215.700,192.595 216.103,192.687 215.495 C 192.779 214.886,192.777 213.986,192.682 213.495 C 192.587 213.003,192.511 213.500,192.514 214.600 M252.561 220.800 C 252.561 224.210,252.622 225.605,252.697 223.900 C 252.772 222.195,252.772 219.405,252.697 217.700 C 252.622 215.995,252.561 217.390,252.561 220.800 " stroke="none" fill="#7c7c7c" fill-rule="evenodd"></path><path id="path3" d="M82.500 126.300 C 98.065 126.358,123.535 126.358,139.100 126.300 C 154.665 126.242,141.930 126.195,110.800 126.195 C 79.670 126.195,66.935 126.242,82.500 126.300 M168.200 126.967 C 169.540 127.981,169.773 128.209,170.517 129.223 C 171.207 130.162,171.207 130.149,170.517 128.863 C 170.123 128.128,169.260 127.264,168.600 126.944 C 167.519 126.419,167.479 126.421,168.200 126.967 M49.200 129.200 C 48.430 129.848,47.945 130.383,48.122 130.389 C 48.299 130.395,49.019 129.861,49.722 129.202 C 51.360 127.666,51.024 127.665,49.200 129.200 M84.531 129.500 C 99.453 129.558,123.753 129.558,138.531 129.500 C 153.309 129.442,141.100 129.394,111.400 129.394 C 81.700 129.394,69.609 129.442,84.531 129.500 M166.837 130.522 C 167.366 131.029,167.874 131.390,167.964 131.324 C 168.224 131.135,166.720 129.600,166.275 129.600 C 166.054 129.600,166.307 130.015,166.837 130.522 M51.474 132.371 C 50.338 133.455,49.497 134.400,49.604 134.471 C 49.712 134.542,50.744 133.655,51.899 132.500 C 54.555 129.843,54.229 129.744,51.474 132.371 M171.400 133.200 C 171.400 134.724,171.522 135.662,171.672 135.285 C 171.821 134.908,171.944 133.970,171.944 133.200 C 171.944 132.430,171.821 131.492,171.672 131.115 C 171.522 130.738,171.400 131.676,171.400 133.200 M184.000 160.357 C 184.000 173.445,184.072 175.142,184.633 175.357 C 185.459 175.674,210.541 175.674,211.367 175.357 C 212.007 175.112,212.294 172.800,211.684 172.800 C 211.511 172.800,211.376 173.295,211.384 173.900 L 211.400 175.000 198.000 175.000 L 184.600 175.000 184.600 160.300 C 184.600 152.215,184.465 145.600,184.300 145.600 C 184.135 145.600,184.000 152.241,184.000 160.357 M234.214 147.852 C 236.093 150.971,236.401 151.109,234.771 148.100 C 234.025 146.725,233.290 145.600,233.137 145.600 C 232.984 145.600,233.469 146.613,234.214 147.852 M255.467 145.867 C 254.818 146.515,255.173 175.104,255.833 175.357 C 256.706 175.692,257.915 175.661,258.139 175.298 C 258.242 175.132,257.757 174.997,257.063 174.998 L 255.800 175.000 255.800 160.300 C 255.800 152.215,255.785 145.600,255.767 145.600 C 255.748 145.600,255.613 145.720,255.467 145.867 M309.381 160.400 C 309.381 168.650,309.434 172.025,309.499 167.900 C 309.564 163.775,309.564 157.025,309.499 152.900 C 309.434 148.775,309.381 152.150,309.381 160.400 M328.000 145.735 C 328.000 145.895,328.630 146.657,329.400 147.427 C 330.170 148.197,330.800 148.676,330.800 148.492 C 330.800 148.308,330.170 147.546,329.400 146.800 C 328.630 146.054,328.000 145.574,328.000 145.735 M356.200 160.338 L 356.200 175.000 354.587 175.119 C 352.986 175.237,352.931 175.192,346.254 168.420 C 342.558 164.670,339.594 161.770,339.667 161.974 C 340.337 163.850,353.001 175.600,354.352 175.600 C 356.643 175.600,356.800 175.223,356.800 169.720 C 356.800 167.014,356.880 164.800,356.977 164.800 C 357.075 164.800,357.840 165.170,358.677 165.622 C 359.515 166.075,359.856 166.210,359.435 165.922 C 356.801 164.124,356.525 162.394,358.652 161.013 C 361.278 159.307,361.348 159.231,359.500 160.083 C 358.455 160.565,357.600 161.104,357.600 161.280 C 357.600 161.456,357.420 161.600,357.200 161.600 C 356.947 161.600,356.800 158.741,356.800 153.824 C 356.800 149.547,356.665 145.964,356.500 145.862 C 356.335 145.760,356.200 152.274,356.200 160.338 M312.181 160.600 C 312.181 168.740,312.234 172.013,312.300 167.874 C 312.365 163.734,312.365 157.074,312.299 153.074 C 312.234 149.073,312.181 152.460,312.181 160.600 M228.600 147.600 C 228.259 148.260,228.069 148.800,228.179 148.800 C 228.289 148.800,228.659 148.260,229.000 147.600 C 229.341 146.940,229.531 146.400,229.421 146.400 C 229.311 146.400,228.941 146.940,228.600 147.600 M383.100 147.029 C 381.605 147.840,381.696 148.178,383.200 147.400 C 383.860 147.059,384.400 146.694,384.400 146.590 C 384.400 146.332,384.357 146.347,383.100 147.029 M378.700 149.429 C 377.205 150.240,377.296 150.578,378.800 149.800 C 379.460 149.459,380.000 149.094,380.000 148.990 C 380.000 148.732,379.957 148.747,378.700 149.429 M384.700 149.429 C 383.205 150.240,383.296 150.578,384.800 149.800 C 385.460 149.459,386.000 149.094,386.000 148.990 C 386.000 148.732,385.957 148.747,384.700 149.429 M326.982 149.704 C 326.875 149.981,326.839 155.876,326.900 162.804 L 327.012 175.400 327.106 162.700 C 327.158 155.715,327.333 150.000,327.495 150.000 C 327.657 150.000,330.219 152.385,333.190 155.300 L 338.590 160.600 333.195 154.958 C 327.616 149.123,327.305 148.860,326.982 149.704 M229.828 151.461 C 229.256 152.484,228.852 153.385,228.929 153.463 C 229.007 153.540,229.561 152.703,230.160 151.602 C 230.760 150.501,231.164 149.600,231.059 149.600 C 230.954 149.600,230.400 150.437,229.828 151.461 M288.823 153.240 C 285.708 158.147,285.418 158.633,285.872 158.200 C 286.370 157.725,290.071 152.188,290.752 150.900 C 291.792 148.934,290.770 150.174,288.823 153.240 M342.419 160.715 C 353.765 172.503,353.600 172.345,353.600 171.424 C 353.600 171.081,353.417 170.845,353.193 170.900 C 352.969 170.955,348.089 166.230,342.349 160.400 L 331.913 149.800 342.419 160.715 M291.926 153.700 C 289.869 156.793,288.415 159.253,288.910 158.800 C 289.031 158.690,290.270 156.890,291.665 154.800 L 294.200 151.000 294.306 162.980 C 294.417 175.533,294.432 175.629,296.200 175.554 C 296.840 175.527,296.801 175.465,296.000 175.242 L 295.000 174.964 294.894 162.682 C 294.836 155.927,294.638 150.400,294.454 150.400 C 294.270 150.400,293.133 151.885,291.926 153.700 M381.700 151.070 C 380.448 151.943,380.263 173.896,381.500 174.832 C 382.096 175.282,382.125 175.278,381.700 174.801 C 381.325 174.380,381.200 171.429,381.200 163.013 L 381.200 151.785 382.300 151.103 C 382.905 150.728,383.220 150.426,383.000 150.432 C 382.780 150.437,382.195 150.724,381.700 151.070 M226.200 152.000 C 225.859 152.660,225.669 153.200,225.779 153.200 C 225.889 153.200,226.259 152.660,226.600 152.000 C 226.941 151.340,227.131 150.800,227.021 150.800 C 226.911 150.800,226.541 151.340,226.200 152.000 M236.000 150.950 C 236.000 151.241,238.071 154.800,238.241 154.800 C 238.336 154.800,237.957 153.900,237.400 152.800 C 236.531 151.086,236.000 150.383,236.000 150.950 M233.160 151.800 C 233.834 153.105,234.388 153.828,234.385 153.400 C 234.383 153.180,234.014 152.550,233.564 152.000 C 233.021 151.336,232.885 151.269,233.160 151.800 M374.300 151.829 C 372.805 152.640,372.896 152.978,374.400 152.200 C 375.060 151.859,375.600 151.494,375.600 151.390 C 375.600 151.132,375.557 151.147,374.300 151.829 M161.968 152.700 C 161.518 153.296,161.522 153.325,161.999 152.900 C 163.400 151.651,165.308 152.276,165.054 153.900 C 164.886 154.969,164.923 155.170,165.181 154.600 C 166.258 152.224,163.543 150.618,161.968 152.700 M370.700 153.877 C 369.656 154.458,368.863 154.997,368.940 155.073 C 369.100 155.234,372.800 153.214,372.800 152.966 C 372.800 152.715,372.743 152.740,370.700 153.877 M264.448 154.100 C 265.129 155.388,268.830 160.925,269.328 161.400 C 269.782 161.833,269.492 161.347,266.377 156.440 C 264.430 153.374,263.408 152.134,264.448 154.100 M224.653 154.900 L 223.933 156.200 224.758 155.200 C 225.489 154.313,225.814 153.600,225.486 153.600 C 225.424 153.600,225.049 154.185,224.653 154.900 M261.058 154.100 C 263.771 158.539,269.072 166.339,267.788 164.000 C 266.968 162.508,261.099 153.600,260.936 153.600 C 260.835 153.600,260.890 153.825,261.058 154.100 M376.623 153.963 C 376.500 154.162,376.759 154.231,377.199 154.116 C 377.983 153.911,378.000 154.102,378.000 163.153 C 378.000 168.239,377.901 172.400,377.780 172.400 C 377.659 172.400,377.029 172.125,376.380 171.790 C 375.731 171.454,375.200 171.269,375.200 171.379 C 375.200 171.777,377.633 172.827,378.012 172.593 C 378.872 172.061,378.495 153.600,377.624 153.600 C 377.197 153.600,376.746 153.763,376.623 153.963 M227.800 155.200 C 227.459 155.860,227.269 156.400,227.379 156.400 C 227.489 156.400,227.859 155.860,228.200 155.200 C 228.541 154.540,228.731 154.000,228.621 154.000 C 228.511 154.000,228.141 154.540,227.800 155.200 M235.000 155.200 C 235.341 155.860,235.711 156.400,235.821 156.400 C 235.931 156.400,235.741 155.860,235.400 155.200 C 235.059 154.540,234.689 154.000,234.579 154.000 C 234.469 154.000,234.659 154.540,235.000 155.200 M238.415 155.400 C 238.417 155.620,238.786 156.250,239.236 156.800 C 239.779 157.464,239.915 157.531,239.640 157.000 C 238.966 155.695,238.412 154.972,238.415 155.400 M367.100 155.829 C 365.605 156.640,365.696 156.978,367.200 156.200 C 367.860 155.859,368.400 155.494,368.400 155.390 C 368.400 155.132,368.357 155.147,367.100 155.829 M373.100 155.829 C 371.605 156.640,371.696 156.978,373.200 156.200 C 373.860 155.859,374.400 155.494,374.400 155.390 C 374.400 155.132,374.357 155.147,373.100 155.829 M225.828 158.661 C 225.256 159.684,224.852 160.585,224.929 160.663 C 225.007 160.740,225.561 159.903,226.160 158.802 C 226.760 157.701,227.164 156.800,227.059 156.800 C 226.954 156.800,226.400 157.637,225.828 158.661 M362.700 158.229 C 361.205 159.040,361.296 159.378,362.800 158.600 C 363.460 158.259,364.000 157.894,364.000 157.790 C 364.000 157.532,363.957 157.547,362.700 158.229 M368.700 158.229 C 367.205 159.040,367.296 159.378,368.800 158.600 C 369.460 158.259,370.000 157.894,370.000 157.790 C 370.000 157.532,369.957 157.547,368.700 158.229 M222.200 159.200 C 221.859 159.860,221.669 160.400,221.779 160.400 C 221.889 160.400,222.259 159.860,222.600 159.200 C 222.941 158.540,223.131 158.000,223.021 158.000 C 222.911 158.000,222.541 158.540,222.200 159.200 M237.840 160.402 C 238.439 161.503,238.993 162.340,239.071 162.263 C 239.243 162.090,237.208 158.400,236.941 158.400 C 236.836 158.400,237.240 159.301,237.840 160.402 M365.111 160.160 C 363.016 161.405,362.684 161.863,364.600 160.865 C 366.605 159.820,367.519 159.203,367.000 159.244 C 366.780 159.261,365.930 159.674,365.111 160.160 M241.400 160.800 C 241.741 161.460,242.111 162.000,242.221 162.000 C 242.331 162.000,242.141 161.460,241.800 160.800 C 241.459 160.140,241.089 159.600,240.979 159.600 C 240.869 159.600,241.059 160.140,241.400 160.800 M162.481 161.218 C 161.859 162.215,159.810 162.266,159.190 161.300 C 158.769 160.646,158.755 160.648,158.970 161.333 C 159.096 161.736,159.200 162.141,159.200 162.233 C 159.200 162.878,162.274 162.293,162.731 161.561 C 163.020 161.100,163.191 160.658,163.113 160.579 C 163.034 160.501,162.750 160.788,162.481 161.218 M220.240 162.798 C 219.640 163.899,219.236 164.800,219.341 164.800 C 219.608 164.800,221.643 161.110,221.471 160.937 C 221.393 160.860,220.839 161.697,220.240 162.798 M223.800 162.400 C 223.459 163.060,223.269 163.600,223.379 163.600 C 223.489 163.600,223.859 163.060,224.200 162.400 C 224.541 161.740,224.731 161.200,224.621 161.200 C 224.511 161.200,224.141 161.740,223.800 162.400 M361.421 162.270 L 360.241 162.909 361.421 163.852 C 362.069 164.371,362.775 164.797,362.989 164.798 C 363.203 164.799,362.933 164.500,362.389 164.133 C 361.845 163.766,361.313 163.393,361.206 163.305 C 361.099 163.217,361.459 162.802,362.006 162.382 C 363.212 161.455,363.001 161.415,361.421 162.270 M242.406 162.450 C 242.397 162.805,244.433 166.400,244.642 166.400 C 244.738 166.400,244.460 165.725,244.024 164.900 C 243.078 163.111,242.415 162.106,242.406 162.450 M279.833 167.200 C 276.175 172.859,276.787 172.593,274.770 169.400 C 273.867 167.970,273.034 166.800,272.918 166.800 C 272.803 166.800,272.963 167.205,273.276 167.700 C 273.588 168.195,274.374 169.455,275.022 170.499 C 275.670 171.544,276.330 172.399,276.490 172.399 C 276.764 172.400,280.387 167.151,282.356 163.900 C 284.382 160.556,282.736 162.709,279.833 167.200 M239.800 164.000 C 240.141 164.660,240.511 165.200,240.621 165.200 C 240.731 165.200,240.541 164.660,240.200 164.000 C 239.859 163.340,239.489 162.800,239.379 162.800 C 239.269 162.800,239.459 163.340,239.800 164.000 M283.126 167.300 C 280.791 170.811,279.863 172.400,280.146 172.400 C 280.242 172.400,281.246 170.942,282.377 169.160 C 283.508 167.378,284.717 165.488,285.063 164.960 C 285.409 164.432,285.608 164.000,285.506 164.000 C 285.404 164.000,284.333 165.485,283.126 167.300 M363.600 164.979 C 363.600 165.089,364.140 165.459,364.800 165.800 C 365.460 166.141,366.000 166.331,366.000 166.221 C 366.000 166.111,365.460 165.741,364.800 165.400 C 364.140 165.059,363.600 164.869,363.600 164.979 M221.892 165.842 C 221.066 166.667,222.382 166.800,231.400 166.800 C 240.479 166.800,241.198 166.748,241.168 166.100 C 241.150 165.682,241.056 165.601,240.935 165.900 C 240.670 166.557,222.544 166.631,222.325 165.975 C 222.247 165.741,222.052 165.681,221.892 165.842 M360.400 166.593 C 360.400 166.700,361.300 167.243,362.400 167.800 C 364.915 169.075,365.021 168.816,362.550 167.434 C 360.627 166.360,360.400 166.271,360.400 166.593 M217.400 168.000 C 217.059 168.660,216.869 169.200,216.979 169.200 C 217.089 169.200,217.459 168.660,217.800 168.000 C 218.141 167.340,218.331 166.800,218.221 166.800 C 218.111 166.800,217.741 167.340,217.400 168.000 M244.800 166.950 C 244.800 167.241,246.871 170.800,247.041 170.800 C 247.136 170.800,246.757 169.900,246.200 168.800 C 245.331 167.086,244.800 166.383,244.800 166.950 M270.196 168.200 C 274.511 175.174,274.903 175.609,276.800 175.527 L 278.200 175.466 276.694 175.308 C 275.293 175.162,275.017 174.895,272.740 171.475 C 270.388 167.942,268.661 165.719,270.196 168.200 M368.000 167.379 C 368.000 167.489,368.540 167.859,369.200 168.200 C 369.860 168.541,370.400 168.731,370.400 168.621 C 370.400 168.511,369.860 168.141,369.200 167.800 C 368.540 167.459,368.000 167.269,368.000 167.379 M365.200 169.220 C 366.587 170.161,367.378 170.435,366.400 169.636 C 365.850 169.186,365.220 168.817,365.000 168.815 C 364.780 168.813,364.870 168.996,365.200 169.220 M370.800 168.987 C 370.800 169.097,371.700 169.643,372.800 170.200 C 373.900 170.757,374.800 171.123,374.800 171.013 C 374.800 170.903,373.900 170.357,372.800 169.800 C 371.700 169.243,370.800 168.877,370.800 168.987 M215.853 170.900 L 215.133 172.200 215.958 171.200 C 216.689 170.313,217.014 169.600,216.686 169.600 C 216.624 169.600,216.249 170.185,215.853 170.900 M219.702 170.100 C 219.136 170.815,218.340 172.400,218.546 172.400 C 218.642 172.400,219.093 171.770,219.547 171.000 C 220.373 169.601,220.449 169.157,219.702 170.100 M247.800 172.400 C 248.141 173.060,248.511 173.600,248.621 173.600 C 248.731 173.600,248.541 173.060,248.200 172.400 C 247.859 171.740,247.489 171.200,247.379 171.200 C 247.269 171.200,247.459 171.740,247.800 172.400 M369.200 171.379 C 369.200 171.489,369.740 171.859,370.400 172.200 C 371.060 172.541,371.600 172.731,371.600 172.621 C 371.600 172.511,371.060 172.141,370.400 171.800 C 369.740 171.459,369.200 171.269,369.200 171.379 M244.600 172.800 C 244.941 173.460,245.311 174.000,245.421 174.000 C 245.531 174.000,245.341 173.460,245.000 172.800 C 244.659 172.140,244.289 171.600,244.179 171.600 C 244.069 171.600,244.259 172.140,244.600 172.800 M372.400 173.222 C 373.433 173.926,376.000 175.225,376.000 175.042 C 376.000 174.833,372.405 172.797,372.050 172.806 C 371.912 172.809,372.070 172.996,372.400 173.222 M213.772 174.445 C 213.410 175.032,214.349 175.598,215.600 175.547 C 216.509 175.509,216.491 175.480,215.400 175.230 C 214.740 175.079,214.245 174.741,214.300 174.478 C 214.426 173.877,214.134 173.859,213.772 174.445 M248.800 174.507 C 248.800 174.898,248.372 175.212,247.700 175.313 L 246.600 175.480 247.713 175.540 C 248.773 175.597,249.624 174.691,249.049 174.116 C 248.912 173.979,248.800 174.155,248.800 174.507 M376.400 175.393 C 376.400 175.500,377.300 176.043,378.400 176.600 C 380.915 177.875,381.021 177.616,378.550 176.234 C 376.627 175.160,376.400 175.071,376.400 175.393 M384.000 176.179 C 384.000 176.289,384.540 176.659,385.200 177.000 C 385.860 177.341,386.400 177.531,386.400 177.421 C 386.400 177.311,385.860 176.941,385.200 176.600 C 384.540 176.259,384.000 176.069,384.000 176.179 M157.072 177.757 C 156.944 178.090,156.179 178.418,155.322 178.507 L 153.800 178.666 155.251 178.733 C 156.585 178.795,158.047 177.913,157.506 177.373 C 157.392 177.259,157.197 177.432,157.072 177.757 M381.200 178.020 C 382.587 178.961,383.378 179.235,382.400 178.436 C 381.850 177.986,381.220 177.617,381.000 177.615 C 380.780 177.613,380.870 177.796,381.200 178.020 M386.327 179.100 C 386.243 179.830,385.998 180.157,385.600 180.071 C 385.109 179.966,385.094 180.038,385.517 180.468 C 386.148 181.110,386.784 180.329,386.794 178.900 C 386.802 177.638,386.479 177.776,386.327 179.100 M151.300 187.876 C 151.685 187.976,152.315 187.976,152.700 187.876 C 153.085 187.775,152.770 187.693,152.000 187.693 C 151.230 187.693,150.915 187.775,151.300 187.876 M163.067 201.867 C 162.920 202.013,162.841 207.818,162.891 214.767 L 162.983 227.400 163.191 214.800 L 163.400 202.200 172.800 202.214 C 178.189 202.222,181.091 202.114,179.600 201.961 C 176.118 201.603,163.403 201.531,163.067 201.867 M205.643 202.148 C 205.320 202.538,205.220 206.207,205.300 214.848 L 205.412 227.000 205.506 214.687 C 205.605 201.709,205.714 201.001,207.405 202.404 C 207.750 202.691,208.000 202.727,208.000 202.492 C 208.000 202.106,207.101 201.600,206.416 201.600 C 206.241 201.600,205.893 201.847,205.643 202.148 M230.800 202.000 C 229.456 202.431,230.908 202.431,232.600 202.000 C 233.678 201.726,233.698 201.694,232.800 201.687 C 232.250 201.683,231.350 201.824,230.800 202.000 M241.400 202.000 C 243.092 202.431,244.544 202.431,243.200 202.000 C 242.650 201.824,241.750 201.683,241.200 201.687 C 240.302 201.694,240.322 201.726,241.400 202.000 M265.836 201.942 C 265.720 202.130,266.141 202.265,266.773 202.242 C 267.405 202.219,267.838 202.065,267.737 201.900 C 267.485 201.490,266.096 201.520,265.836 201.942 M277.862 201.900 C 277.759 202.065,283.483 202.150,290.580 202.089 C 301.903 201.992,303.548 202.056,304.005 202.606 C 304.933 203.724,303.918 203.974,297.992 204.088 L 292.200 204.200 292.191 215.600 L 292.182 227.000 292.297 215.700 L 292.412 204.400 298.157 204.400 C 304.416 204.400,305.318 204.115,304.414 202.426 C 303.958 201.575,278.376 201.068,277.862 201.900 M322.162 202.500 L 321.400 203.400 322.289 202.648 C 322.945 202.093,323.522 201.962,324.489 202.147 C 325.420 202.326,325.626 202.285,325.200 202.006 C 324.199 201.350,322.966 201.550,322.162 202.500 M349.036 201.942 C 348.920 202.130,349.341 202.265,349.973 202.242 C 350.605 202.219,351.038 202.065,350.937 201.900 C 350.685 201.490,349.296 201.520,349.036 201.942 M182.833 202.544 C 182.925 202.623,183.540 202.808,184.200 202.956 C 185.076 203.152,185.238 203.115,184.800 202.818 C 184.260 202.453,182.432 202.198,182.833 202.544 M268.178 214.800 C 268.178 221.510,268.232 224.255,268.299 220.900 C 268.366 217.545,268.366 212.055,268.299 208.700 C 268.232 205.345,268.178 208.090,268.178 214.800 M326.200 204.000 C 326.541 204.660,326.911 205.200,327.021 205.200 C 327.131 205.200,326.941 204.660,326.600 204.000 C 326.259 203.340,325.889 202.800,325.779 202.800 C 325.669 202.800,325.859 203.340,326.200 204.000 M351.293 213.900 L 351.200 225.200 361.413 225.200 L 371.626 225.200 371.988 226.100 C 372.187 226.595,372.361 226.790,372.375 226.533 C 372.468 224.808,372.417 224.800,361.764 224.800 L 351.613 224.800 351.500 213.700 L 351.387 202.600 351.293 213.900 M247.368 203.694 C 247.791 203.972,248.871 204.823,249.768 205.585 L 251.400 206.971 250.200 205.650 C 249.540 204.923,248.460 204.072,247.800 203.759 C 247.140 203.445,246.946 203.416,247.368 203.694 M187.611 204.260 C 188.155 204.624,189.151 205.389,189.823 205.960 C 190.496 206.532,190.254 206.235,189.285 205.300 C 188.316 204.365,187.320 203.600,187.072 203.600 C 186.825 203.600,187.067 203.897,187.611 204.260 M165.700 204.265 C 164.861 204.604,164.989 224.634,165.833 224.957 C 166.181 225.091,168.836 225.163,171.733 225.117 L 177.000 225.035 171.400 224.817 L 165.800 224.600 165.800 214.600 L 165.800 204.600 173.600 204.625 C 178.609 204.641,180.470 204.550,178.800 204.371 C 175.762 204.047,166.429 203.971,165.700 204.265 M224.371 204.902 C 223.805 205.396,223.093 206.160,222.790 206.600 C 222.486 207.040,222.994 206.688,223.919 205.819 C 225.453 204.376,225.783 203.996,225.500 204.002 C 225.445 204.003,224.937 204.408,224.371 204.902 M231.400 204.396 C 230.902 204.608,231.431 204.651,232.800 204.512 C 234.010 204.389,235.075 204.223,235.167 204.144 C 235.511 203.847,232.167 204.070,231.400 204.396 M238.433 204.145 C 238.525 204.224,239.680 204.387,241.000 204.507 C 242.449 204.638,243.083 204.592,242.600 204.390 C 241.830 204.069,238.093 203.849,238.433 204.145 M279.400 204.268 C 284.223 204.559,289.511 204.575,289.339 204.300 C 289.237 204.135,286.508 204.033,283.276 204.074 C 280.044 204.115,278.300 204.202,279.400 204.268 M144.368 205.500 C 143.918 206.096,143.922 206.125,144.399 205.700 C 145.800 204.451,147.708 205.076,147.454 206.700 C 147.286 207.769,147.323 207.970,147.581 207.400 C 148.658 205.024,145.943 203.418,144.368 205.500 M182.800 205.200 C 184.168 205.638,185.219 205.638,184.200 205.200 C 183.760 205.011,183.040 204.862,182.600 204.868 C 181.957 204.877,181.996 204.943,182.800 205.200 M244.000 205.086 C 244.330 205.209,245.095 205.560,245.700 205.865 C 246.305 206.171,246.800 206.331,246.800 206.221 C 246.800 205.907,244.498 204.796,243.920 204.832 C 243.571 204.853,243.597 204.936,244.000 205.086 M322.993 206.087 L 322.352 207.400 323.205 206.400 C 323.699 205.822,324.137 205.587,324.244 205.843 C 324.346 206.087,324.701 206.627,325.034 207.043 C 325.560 207.701,325.558 207.634,325.022 206.525 C 324.136 204.693,323.718 204.603,322.993 206.087 M319.800 206.400 C 319.459 207.060,319.269 207.600,319.379 207.600 C 319.489 207.600,319.859 207.060,320.200 206.400 C 320.541 205.740,320.731 205.200,320.621 205.200 C 320.511 205.200,320.141 205.740,319.800 206.400 M226.276 206.900 C 225.030 208.133,225.025 208.149,226.181 207.203 C 226.852 206.655,227.571 206.070,227.780 205.903 C 227.989 205.736,228.031 205.600,227.874 205.600 C 227.717 205.600,226.998 206.185,226.276 206.900 M327.206 205.650 C 327.197 206.005,329.233 209.600,329.442 209.600 C 329.538 209.600,329.260 208.925,328.824 208.100 C 327.878 206.311,327.215 205.306,327.206 205.650 M247.872 207.179 C 248.132 207.521,248.626 208.341,248.970 209.001 C 249.314 209.660,249.596 209.923,249.598 209.585 C 249.599 209.247,249.105 208.427,248.500 207.763 C 247.895 207.099,247.613 206.836,247.872 207.179 M321.028 209.461 C 320.456 210.484,320.069 211.402,320.167 211.501 C 320.266 211.599,320.811 210.762,321.380 209.640 C 322.673 207.088,322.425 206.962,321.028 209.461 M317.840 209.998 C 317.240 211.099,316.836 212.000,316.941 212.000 C 317.208 212.000,319.243 208.310,319.071 208.137 C 318.993 208.060,318.439 208.897,317.840 209.998 M252.046 209.750 C 252.004 210.812,251.907 210.881,250.780 210.656 C 250.024 210.505,249.653 210.562,249.804 210.806 C 250.604 212.100,252.678 210.858,252.280 209.323 C 252.163 208.870,252.075 209.030,252.046 209.750 M192.087 209.800 C 192.091 210.240,192.232 211.140,192.400 211.800 C 192.674 212.878,192.706 212.898,192.713 212.000 C 192.717 211.450,192.576 210.550,192.400 210.000 C 192.149 209.216,192.081 209.173,192.087 209.800 M221.000 210.400 C 220.848 211.091,220.807 211.741,220.909 211.842 C 221.011 211.944,221.209 211.453,221.350 210.750 C 221.491 210.047,221.531 209.398,221.441 209.308 C 221.350 209.217,221.152 209.709,221.000 210.400 M326.760 210.200 C 327.434 211.505,327.988 212.228,327.985 211.800 C 327.983 211.580,327.614 210.950,327.164 210.400 C 326.621 209.736,326.485 209.669,326.760 210.200 M330.200 211.200 C 330.541 211.860,330.911 212.400,331.021 212.400 C 331.131 212.400,330.941 211.860,330.600 211.200 C 330.259 210.540,329.889 210.000,329.779 210.000 C 329.669 210.000,329.859 210.540,330.200 211.200 M223.452 211.300 C 223.113 212.567,223.152 217.706,223.506 218.260 C 223.668 218.513,223.800 216.848,223.800 214.560 C 223.800 210.002,223.800 210.002,223.452 211.300 M189.800 214.842 C 189.800 217.046,189.917 218.433,190.060 217.925 C 190.406 216.694,190.414 212.377,190.072 211.517 C 189.922 211.142,189.800 212.638,189.800 214.842 M318.628 213.861 C 318.056 214.884,317.652 215.785,317.729 215.863 C 317.807 215.940,318.361 215.103,318.960 214.002 C 319.560 212.901,319.964 212.000,319.859 212.000 C 319.754 212.000,319.200 212.837,318.628 213.861 M328.600 213.600 C 328.941 214.260,329.311 214.800,329.421 214.800 C 329.531 214.800,329.341 214.260,329.000 213.600 C 328.659 212.940,328.289 212.400,328.179 212.400 C 328.069 212.400,328.259 212.940,328.600 213.600 M143.300 213.076 C 143.685 213.176,144.315 213.176,144.700 213.076 C 145.085 212.975,144.770 212.893,144.000 212.893 C 143.230 212.893,142.915 212.975,143.300 213.076 M242.120 214.298 C 244.055 214.372,247.115 214.371,248.920 214.297 C 250.724 214.223,249.140 214.163,245.400 214.164 C 241.660 214.164,240.184 214.225,242.120 214.298 M315.000 215.200 C 314.659 215.860,314.469 216.400,314.579 216.400 C 314.689 216.400,315.059 215.860,315.400 215.200 C 315.741 214.540,315.931 214.000,315.821 214.000 C 315.711 214.000,315.341 214.540,315.000 215.200 M238.046 215.000 C 237.977 216.635,238.424 216.772,244.216 216.888 L 249.800 217.000 249.704 218.000 L 249.607 219.000 250.016 218.032 C 250.638 216.558,250.214 216.432,244.209 216.312 C 238.644 216.200,238.635 216.198,238.357 215.200 C 238.135 214.400,238.073 214.360,238.046 215.000 M332.600 215.600 C 332.941 216.260,333.311 216.800,333.421 216.800 C 333.531 216.800,333.341 216.260,333.000 215.600 C 332.659 214.940,332.289 214.400,332.179 214.400 C 332.069 214.400,332.259 214.940,332.600 215.600 M192.454 217.200 C 192.419 217.750,192.296 218.650,192.183 219.200 L 191.977 220.200 192.407 219.215 C 192.643 218.674,192.765 217.774,192.678 217.215 L 192.520 216.200 192.454 217.200 M316.600 217.600 C 316.259 218.260,316.069 218.800,316.179 218.800 C 316.289 218.800,316.659 218.260,317.000 217.600 C 317.341 216.940,317.531 216.400,317.421 216.400 C 317.311 216.400,316.941 216.940,316.600 217.600 M313.453 218.100 L 312.733 219.400 313.558 218.400 C 314.289 217.513,314.614 216.800,314.286 216.800 C 314.224 216.800,313.849 217.385,313.453 218.100 M331.130 218.382 C 331.498 219.251,331.856 219.804,331.924 219.609 C 332.050 219.249,330.913 216.800,330.619 216.800 C 330.531 216.800,330.761 217.512,331.130 218.382 M220.868 218.200 C 220.862 218.640,221.011 219.360,221.200 219.800 C 221.638 220.819,221.638 219.768,221.200 218.400 C 220.943 217.596,220.877 217.557,220.868 218.200 M335.000 220.000 C 335.341 220.660,335.711 221.200,335.821 221.200 C 335.931 221.200,335.741 220.660,335.400 220.000 C 335.059 219.340,334.689 218.800,334.579 218.800 C 334.469 218.800,334.659 219.340,335.000 220.000 M189.200 219.519 C 189.200 220.293,186.865 222.676,185.589 223.205 C 184.921 223.481,184.453 223.787,184.550 223.883 C 184.787 224.120,186.802 223.051,187.837 222.138 C 188.841 221.254,189.757 219.623,189.432 219.299 C 189.305 219.171,189.200 219.270,189.200 219.519 M191.424 221.123 C 191.149 221.991,189.509 223.805,187.987 224.927 C 187.207 225.501,187.293 225.488,188.400 224.861 C 189.834 224.049,192.332 220.998,191.909 220.575 C 191.779 220.446,191.561 220.692,191.424 221.123 M222.041 221.600 C 222.589 222.799,224.311 224.712,225.349 225.275 C 225.761 225.498,225.311 224.898,224.349 223.940 C 223.387 222.983,222.371 221.840,222.092 221.400 C 221.653 220.709,221.646 220.736,222.041 221.600 M247.375 222.100 L 246.200 223.400 247.500 222.225 C 248.712 221.130,248.984 220.800,248.675 220.800 C 248.606 220.800,248.021 221.385,247.375 222.100 M226.343 222.700 C 227.108 223.415,227.923 224.000,228.156 224.000 C 228.388 224.000,228.133 223.702,227.589 223.338 C 227.045 222.973,226.230 222.388,225.777 222.038 C 225.324 221.687,225.579 221.985,226.343 222.700 M311.000 222.400 C 310.659 223.060,310.469 223.600,310.579 223.600 C 310.689 223.600,311.059 223.060,311.400 222.400 C 311.741 221.740,311.931 221.200,311.821 221.200 C 311.711 221.200,311.341 221.740,311.000 222.400 M336.006 221.650 C 335.997 222.005,338.033 225.600,338.242 225.600 C 338.338 225.600,338.060 224.925,337.624 224.100 C 336.678 222.311,336.015 221.306,336.006 221.650 M139.700 222.276 C 140.085 222.376,140.715 222.376,141.100 222.276 C 141.485 222.175,141.170 222.093,140.400 222.093 C 139.630 222.093,139.315 222.175,139.700 222.276 M141.829 223.429 C 141.681 224.015,141.638 224.572,141.732 224.666 C 141.827 224.760,142.024 224.358,142.171 223.771 C 142.319 223.185,142.362 222.628,142.268 222.534 C 142.173 222.440,141.976 222.842,141.829 223.429 M248.378 224.266 L 247.000 225.733 248.300 224.839 C 249.015 224.348,249.600 223.767,249.600 223.549 C 249.600 223.331,249.780 223.264,250.000 223.400 C 250.220 223.536,250.400 223.457,250.400 223.224 C 250.400 222.457,249.777 222.779,248.378 224.266 M312.600 224.800 C 312.259 225.460,312.069 226.000,312.179 226.000 C 312.289 226.000,312.659 225.460,313.000 224.800 C 313.341 224.140,313.531 223.600,313.421 223.600 C 313.311 223.600,312.941 224.140,312.600 224.800 M181.600 224.400 C 180.216 224.691,180.214 224.695,181.400 224.741 C 182.060 224.767,182.870 224.613,183.200 224.400 C 183.866 223.970,183.645 223.970,181.600 224.400 M232.880 225.260 C 234.047 225.590,239.027 225.585,240.578 225.253 C 241.226 225.114,239.552 225.000,236.858 225.000 C 234.163 225.000,232.373 225.117,232.880 225.260 M338.471 226.365 C 338.544 226.685,338.167 227.057,337.600 227.225 C 336.789 227.464,336.751 227.527,337.400 227.554 C 338.708 227.609,339.502 226.940,338.868 226.317 C 338.438 225.894,338.366 225.903,338.471 226.365 M182.000 226.800 C 181.208 227.054,181.167 227.120,181.800 227.120 C 182.240 227.120,183.050 226.976,183.600 226.800 C 184.392 226.546,184.433 226.480,183.800 226.480 C 183.360 226.480,182.550 226.624,182.000 226.800 M311.380 226.761 C 311.171 226.960,310.640 227.209,310.200 227.315 C 309.441 227.497,309.444 227.510,310.251 227.554 C 310.719 227.579,311.326 227.330,311.600 227.000 C 312.143 226.346,311.991 226.181,311.380 226.761 M349.146 227.306 C 349.315 227.475,354.481 227.565,360.626 227.506 L 371.800 227.399 360.320 227.200 C 354.005 227.090,348.977 227.138,349.146 227.306 M167.521 227.499 C 169.788 227.570,173.388 227.570,175.521 227.498 C 177.655 227.426,175.800 227.368,171.400 227.368 C 167.000 227.368,165.255 227.427,167.521 227.499 M232.226 227.653 C 233.837 227.999,239.062 228.014,240.959 227.677 C 241.872 227.515,240.144 227.400,236.785 227.400 C 233.632 227.400,231.581 227.514,232.226 227.653 M12.229 234.629 C 12.081 235.215,12.038 235.772,12.132 235.866 C 12.227 235.960,12.424 235.558,12.571 234.971 C 12.719 234.385,12.762 233.828,12.668 233.734 C 12.573 233.640,12.376 234.042,12.229 234.629 M15.701 236.600 C 15.705 237.480,15.787 237.793,15.883 237.295 C 15.979 236.798,15.975 236.078,15.875 235.695 C 15.775 235.313,15.696 235.720,15.701 236.600 M135.222 239.326 L 133.044 241.800 134.953 240.000 C 136.531 238.512,137.975 236.722,137.514 236.826 C 137.451 236.840,136.420 237.965,135.222 239.326 M12.041 237.874 C 11.927 239.193,14.617 243.200,15.617 243.200 C 15.759 243.200,15.218 242.508,14.414 241.663 C 13.610 240.818,12.756 239.513,12.517 238.763 C 12.277 238.013,12.063 237.613,12.041 237.874 M16.000 238.567 C 16.000 238.988,17.205 240.128,17.421 239.912 C 17.522 239.811,17.244 239.402,16.802 239.002 C 16.361 238.603,16.000 238.407,16.000 238.567 M72.400 240.400 L 19.400 240.604 72.200 240.662 C 101.240 240.694,125.450 240.576,126.000 240.400 C 126.712 240.172,126.769 240.096,126.200 240.138 C 125.760 240.170,101.550 240.288,72.400 240.400 M131.300 242.234 C 130.585 242.546,130.000 242.882,130.000 242.980 C 130.000 243.275,132.384 242.349,132.624 241.961 C 132.891 241.529,132.929 241.521,131.300 242.234 M17.276 243.660 C 17.784 243.803,42.860 243.920,73.000 243.920 C 103.140 243.920,128.216 243.803,128.724 243.660 C 129.232 243.517,104.156 243.400,73.000 243.400 C 41.844 243.400,16.768 243.517,17.276 243.660 " stroke="none" fill="#9b9b9b" fill-rule="evenodd"></path><path id="path4" d="M84.531 129.100 C 99.453 129.158,123.753 129.158,138.531 129.100 C 153.309 129.042,141.100 128.994,111.400 128.994 C 81.700 128.994,69.609 129.042,84.531 129.100 M47.923 131.100 C 47.218 131.921,46.690 132.800,46.901 132.800 C 46.983 132.800,47.449 132.260,47.937 131.600 C 48.901 130.296,48.892 129.972,47.923 131.100 M171.293 133.200 C 171.293 133.970,171.375 134.285,171.476 133.900 C 171.576 133.515,171.576 132.885,171.476 132.500 C 171.375 132.115,171.293 132.430,171.293 133.200 M165.801 141.596 C 165.376 142.937,167.810 144.078,168.548 142.884 C 168.656 142.710,168.101 142.642,167.316 142.734 C 165.948 142.894,165.899 142.857,166.152 141.850 C 166.458 140.628,166.174 140.422,165.801 141.596 M229.968 146.300 C 229.518 146.896,229.522 146.925,229.999 146.500 C 230.308 146.225,231.028 146.000,231.600 146.000 C 232.172 146.000,232.892 146.225,233.201 146.500 C 233.678 146.925,233.682 146.896,233.232 146.300 C 232.940 145.915,232.206 145.600,231.600 145.600 C 230.994 145.600,230.260 145.915,229.968 146.300 M257.534 145.892 C 258.625 146.026,259.091 146.415,260.094 148.028 C 261.358 150.062,261.983 150.688,261.164 149.100 C 259.899 146.648,258.775 145.599,257.480 145.664 L 256.200 145.728 257.534 145.892 M293.949 146.300 C 293.456 146.929,293.469 146.946,294.076 146.471 C 294.448 146.180,295.258 146.000,295.876 146.071 L 297.000 146.200 297.105 160.373 C 297.187 171.431,297.099 174.625,296.705 174.904 C 296.327 175.171,296.350 175.220,296.800 175.097 C 297.580 174.884,297.922 147.070,297.156 146.147 C 296.516 145.376,294.602 145.467,293.949 146.300 M309.837 145.940 C 309.699 146.163,309.953 146.233,310.440 146.105 C 310.928 145.978,311.446 146.120,311.671 146.443 C 311.995 146.906,312.034 146.899,311.899 146.400 C 311.712 145.707,310.191 145.368,309.837 145.940 M324.667 145.867 C 324.297 146.237,324.329 174.709,324.700 174.938 C 324.865 175.041,324.951 168.552,324.890 160.519 L 324.780 145.914 326.357 146.064 C 327.223 146.147,327.847 146.076,327.743 145.907 C 327.510 145.530,325.036 145.498,324.667 145.867 M353.791 146.100 C 353.474 146.965,353.385 172.334,353.700 172.138 C 353.865 172.036,354.000 166.092,354.000 158.930 L 354.000 145.907 354.988 146.096 C 355.531 146.199,355.881 146.130,355.764 145.942 C 355.441 145.420,353.999 145.535,353.791 146.100 M184.487 160.476 C 184.439 168.328,184.535 174.836,184.700 174.939 C 184.973 175.108,184.966 163.811,184.685 151.200 C 184.624 148.450,184.535 152.624,184.487 160.476 M186.992 159.800 L 187.000 173.000 198.800 173.009 L 210.600 173.018 198.905 172.903 L 187.211 172.788 187.097 159.694 L 186.983 146.600 186.992 159.800 M333.800 152.400 C 336.654 155.260,339.078 157.600,339.188 157.600 C 339.298 157.600,337.054 155.260,334.200 152.400 C 331.346 149.540,328.922 147.200,328.812 147.200 C 328.702 147.200,330.946 149.540,333.800 152.400 M230.962 148.862 C 230.779 149.157,230.853 149.215,231.165 149.022 C 231.450 148.846,231.901 149.028,232.249 149.460 C 232.805 150.151,232.815 150.141,232.408 149.300 C 231.928 148.310,231.401 148.151,230.962 148.862 M326.311 161.962 C 326.250 169.201,326.335 175.041,326.500 174.938 C 326.665 174.836,326.800 169.003,326.800 161.976 C 326.800 148.295,326.789 148.359,328.774 150.100 L 329.800 151.000 328.830 149.900 C 326.479 147.232,326.432 147.454,326.311 161.962 M379.500 149.429 C 378.005 150.240,378.096 150.578,379.600 149.800 C 380.260 149.459,380.800 149.094,380.800 148.990 C 380.800 148.732,380.757 148.747,379.500 149.429 M258.267 149.867 C 258.120 150.013,258.000 155.668,258.000 162.433 C 258.000 170.434,257.857 174.804,257.590 174.937 C 257.365 175.048,257.410 175.094,257.690 175.037 C 258.087 174.956,258.223 172.205,258.306 162.587 C 258.385 153.320,258.535 150.162,258.906 149.926 C 259.204 149.737,259.228 149.610,258.967 149.606 C 258.728 149.603,258.413 149.720,258.267 149.867 M293.762 150.500 L 293.000 151.400 293.900 150.638 L 294.800 149.876 294.800 162.314 C 294.800 169.156,294.935 174.836,295.100 174.938 C 295.265 175.041,295.350 169.381,295.289 162.362 C 295.177 149.407,295.112 148.905,293.762 150.500 M381.289 151.023 C 380.402 151.644,380.400 151.666,380.494 163.123 L 380.587 174.600 380.699 163.200 C 380.809 151.934,380.821 151.792,381.705 151.109 C 382.822 150.247,382.494 150.179,381.289 151.023 M292.553 152.100 C 291.176 154.436,291.086 154.635,291.787 153.800 C 292.600 152.832,293.300 151.600,293.038 151.600 C 292.933 151.600,292.715 151.825,292.553 152.100 M163.875 152.686 C 164.357 152.775,164.833 153.111,164.935 153.432 C 165.051 153.802,165.096 153.757,165.056 153.308 C 165.015 152.849,164.643 152.586,163.997 152.561 C 163.176 152.530,163.154 152.551,163.875 152.686 M336.200 158.000 C 339.054 160.860,341.478 163.200,341.588 163.200 C 341.698 163.200,339.454 160.860,336.600 158.000 C 333.746 155.140,331.322 152.800,331.212 152.800 C 331.102 152.800,333.346 155.140,336.200 158.000 M376.700 153.429 C 375.235 154.223,375.280 154.586,376.749 153.826 C 377.381 153.499,378.011 153.345,378.149 153.483 C 378.287 153.621,378.400 153.523,378.400 153.267 C 378.400 152.664,378.049 152.697,376.700 153.429 M227.800 154.400 C 227.459 155.060,227.269 155.600,227.379 155.600 C 227.489 155.600,227.859 155.060,228.200 154.400 C 228.541 153.740,228.731 153.200,228.621 153.200 C 228.511 153.200,228.141 153.740,227.800 154.400 M261.549 154.200 C 261.765 154.640,262.234 155.360,262.593 155.800 L 263.244 156.600 262.851 155.800 C 262.635 155.360,262.166 154.640,261.807 154.200 L 261.156 153.400 261.549 154.200 M372.300 155.829 C 370.805 156.640,370.896 156.978,372.400 156.200 C 373.060 155.859,373.600 155.494,373.600 155.390 C 373.600 155.132,373.557 155.147,372.300 155.829 M287.353 156.100 C 285.976 158.436,285.886 158.635,286.587 157.800 C 287.400 156.832,288.100 155.600,287.838 155.600 C 287.733 155.600,287.515 155.825,287.353 156.100 M222.200 160.000 C 221.859 160.660,221.669 161.200,221.779 161.200 C 221.889 161.200,222.259 160.660,222.600 160.000 C 222.941 159.340,223.131 158.800,223.021 158.800 C 222.911 158.800,222.541 159.340,222.200 160.000 M267.809 159.826 C 268.181 160.501,268.841 161.491,269.276 162.026 L 270.067 163.000 269.391 161.774 C 269.019 161.099,268.359 160.109,267.924 159.574 L 267.133 158.600 267.809 159.826 M162.474 160.598 C 161.998 161.642,159.893 162.055,159.463 161.190 C 159.351 160.965,159.305 161.010,159.361 161.290 C 159.566 162.326,161.898 162.127,162.630 161.011 C 163.003 160.441,163.223 159.890,163.119 159.786 C 163.015 159.682,162.725 160.047,162.474 160.598 M345.000 164.000 C 347.412 166.420,349.476 168.400,349.586 168.400 C 349.696 168.400,347.812 166.420,345.400 164.000 C 342.988 161.580,340.924 159.600,340.814 159.600 C 340.704 159.600,342.588 161.580,345.000 164.000 M241.400 161.600 C 241.741 162.260,242.111 162.800,242.221 162.800 C 242.331 162.800,242.141 162.260,241.800 161.600 C 241.459 160.940,241.089 160.400,240.979 160.400 C 240.869 160.400,241.059 160.940,241.400 161.600 M239.800 163.200 C 240.141 163.860,240.511 164.400,240.621 164.400 C 240.731 164.400,240.541 163.860,240.200 163.200 C 239.859 162.540,239.489 162.000,239.379 162.000 C 239.269 162.000,239.459 162.540,239.800 163.200 M284.553 164.500 C 283.176 166.836,283.086 167.035,283.787 166.200 C 284.600 165.232,285.300 164.000,285.038 164.000 C 284.933 164.000,284.715 164.225,284.553 164.500 M367.200 167.379 C 367.200 167.489,367.740 167.859,368.400 168.200 C 369.060 168.541,369.600 168.731,369.600 168.621 C 369.600 168.511,369.060 168.141,368.400 167.800 C 367.740 167.459,367.200 167.269,367.200 167.379 M349.200 171.400 C 351.281 173.490,353.074 175.200,353.184 175.200 C 353.294 175.200,351.681 173.490,349.600 171.400 C 347.519 169.310,345.726 167.600,345.616 167.600 C 345.506 167.600,347.119 169.310,349.200 171.400 M279.353 168.500 C 277.976 170.836,277.886 171.035,278.587 170.200 C 279.400 169.232,280.100 168.000,279.838 168.000 C 279.733 168.000,279.515 168.225,279.353 168.500 M271.149 169.000 C 271.365 169.440,271.834 170.160,272.193 170.600 L 272.844 171.400 272.451 170.600 C 272.235 170.160,271.766 169.440,271.407 169.000 L 270.756 168.200 271.149 169.000 M231.367 169.500 C 239.785 169.582,243.106 169.747,243.567 170.106 C 244.126 170.542,244.136 170.518,243.651 169.900 C 243.147 169.258,242.138 169.208,231.451 169.294 L 219.800 169.387 231.367 169.500 M155.968 171.900 C 155.518 172.496,155.522 172.525,155.999 172.100 C 156.936 171.265,158.322 171.485,158.518 172.500 C 158.666 173.272,158.699 173.243,158.746 172.300 C 158.811 170.975,156.879 170.696,155.968 171.900 M370.000 171.379 C 370.000 171.489,370.540 171.859,371.200 172.200 C 371.860 172.541,372.400 172.731,372.400 172.621 C 372.400 172.511,371.860 172.141,371.200 171.800 C 370.540 171.459,370.000 171.269,370.000 171.379 M383.200 176.179 C 383.200 176.289,383.740 176.659,384.400 177.000 C 385.060 177.341,385.600 177.531,385.600 177.421 C 385.600 177.311,385.060 176.941,384.400 176.600 C 383.740 176.259,383.200 176.069,383.200 176.179 M150.400 188.158 C 150.400 188.245,151.105 188.383,151.966 188.465 C 152.828 188.548,153.447 188.476,153.343 188.307 C 153.153 188.000,150.400 187.860,150.400 188.158 M148.126 195.000 C 148.213 195.859,150.185 196.375,150.848 195.712 C 151.050 195.510,150.618 195.429,149.837 195.520 C 148.772 195.644,148.427 195.517,148.260 194.939 C 148.074 194.296,148.056 194.304,148.126 195.000 M236.105 201.887 C 236.714 201.979,237.614 201.977,238.105 201.882 C 238.597 201.787,238.100 201.711,237.000 201.714 C 235.900 201.717,235.497 201.795,236.105 201.887 M265.781 202.905 C 265.675 203.182,265.635 208.717,265.694 215.205 L 265.800 227.000 266.800 227.000 L 267.800 227.000 267.809 214.800 L 267.817 202.600 267.703 214.700 C 267.591 226.523,267.570 226.800,266.783 226.800 C 265.991 226.800,265.979 226.598,266.089 214.600 C 266.150 207.890,266.149 202.400,266.087 202.400 C 266.026 202.400,265.888 202.627,265.781 202.905 M348.981 202.905 C 348.433 204.334,349.011 226.937,349.600 227.097 C 350.056 227.222,350.077 227.174,349.688 226.900 C 349.288 226.617,349.201 223.918,349.288 214.469 C 349.350 207.831,349.349 202.400,349.287 202.400 C 349.226 202.400,349.088 202.627,348.981 202.905 M350.976 213.600 C 350.976 219.870,351.032 222.435,351.099 219.300 C 351.167 216.165,351.167 211.035,351.099 207.900 C 351.032 204.765,350.976 207.330,350.976 213.600 M234.900 203.894 C 235.945 203.976,237.655 203.976,238.700 203.894 C 239.745 203.812,238.890 203.744,236.800 203.744 C 234.710 203.744,233.855 203.812,234.900 203.894 M165.067 204.267 C 164.557 204.776,164.760 224.600,165.280 225.120 C 165.620 225.460,167.576 225.575,171.980 225.515 L 178.200 225.431 171.800 225.215 L 165.400 225.000 165.400 214.500 C 165.400 208.725,165.385 204.000,165.367 204.000 C 165.348 204.000,165.213 204.120,165.067 204.267 M179.300 204.276 C 179.685 204.376,180.315 204.376,180.700 204.276 C 181.085 204.175,180.770 204.093,180.000 204.093 C 179.230 204.093,178.915 204.175,179.300 204.276 M323.292 204.924 C 322.533 205.908,322.363 206.561,323.100 205.656 L 323.869 204.712 324.741 205.856 L 325.613 207.000 325.152 205.922 C 324.618 204.671,323.817 204.242,323.292 204.924 M223.775 206.100 L 222.600 207.400 223.900 206.225 C 224.615 205.579,225.200 204.994,225.200 204.925 C 225.200 204.616,224.870 204.888,223.775 206.100 M245.762 205.294 C 246.181 205.572,247.171 206.333,247.962 206.985 L 249.400 208.170 248.400 207.047 C 247.850 206.429,246.860 205.669,246.200 205.356 C 245.518 205.034,245.329 205.007,245.762 205.294 M146.275 205.486 C 146.757 205.575,147.233 205.911,147.335 206.232 C 147.451 206.602,147.496 206.557,147.456 206.108 C 147.415 205.649,147.043 205.386,146.397 205.361 C 145.576 205.330,145.554 205.351,146.275 205.486 M290.084 216.100 C 290.038 222.205,290.135 227.200,290.300 227.200 C 290.465 227.201,290.554 223.916,290.498 219.900 C 290.306 206.246,290.168 204.976,290.084 216.100 M186.200 205.854 C 186.420 206.048,187.229 206.745,187.999 207.403 L 189.397 208.600 188.399 207.463 C 187.849 206.838,187.040 206.141,186.600 205.914 C 186.160 205.688,185.980 205.661,186.200 205.854 M319.800 207.200 C 319.459 207.860,319.269 208.400,319.379 208.400 C 319.489 208.400,319.859 207.860,320.200 207.200 C 320.541 206.540,320.731 206.000,320.621 206.000 C 320.511 206.000,320.141 206.540,319.800 207.200 M249.678 209.571 C 249.967 210.545,251.108 211.053,251.689 210.467 C 252.105 210.049,252.059 210.006,251.442 210.241 C 250.923 210.439,250.499 210.289,250.096 209.765 C 249.773 209.344,249.585 209.257,249.678 209.571 M192.093 212.400 C 192.093 213.170,192.175 213.485,192.276 213.100 C 192.376 212.715,192.376 212.085,192.276 211.700 C 192.175 211.315,192.093 211.630,192.093 212.400 M143.800 212.400 L 142.200 212.686 143.676 212.743 C 144.488 212.774,145.264 212.620,145.400 212.400 C 145.536 212.180,145.592 212.026,145.524 212.057 C 145.456 212.088,144.680 212.242,143.800 212.400 M220.914 214.600 C 220.917 215.700,220.995 216.103,221.087 215.495 C 221.179 214.886,221.177 213.986,221.082 213.495 C 220.987 213.003,220.911 213.500,220.914 214.600 M241.680 214.698 C 243.594 214.771,246.834 214.771,248.880 214.698 C 250.926 214.626,249.360 214.566,245.400 214.565 C 241.440 214.565,239.766 214.624,241.680 214.698 M332.600 216.400 C 332.941 217.060,333.311 217.600,333.421 217.600 C 333.531 217.600,333.341 217.060,333.000 216.400 C 332.659 215.740,332.289 215.200,332.179 215.200 C 332.069 215.200,332.259 215.740,332.600 216.400 M238.719 216.078 C 239.091 216.447,250.401 216.681,250.401 216.320 C 250.400 216.166,247.708 215.986,244.419 215.920 C 241.129 215.854,238.564 215.925,238.719 216.078 M316.600 216.800 C 316.259 217.460,316.069 218.000,316.179 218.000 C 316.289 218.000,316.659 217.460,317.000 216.800 C 317.341 216.140,317.531 215.600,317.421 215.600 C 317.311 215.600,316.941 216.140,316.600 216.800 M192.093 217.200 C 192.093 217.970,192.175 218.285,192.276 217.900 C 192.376 217.515,192.376 216.885,192.276 216.500 C 192.175 216.115,192.093 216.430,192.093 217.200 M332.000 219.400 C 332.000 220.213,315.792 220.311,315.465 219.500 C 315.344 219.201,315.250 219.282,315.232 219.700 C 315.202 220.346,315.864 220.400,323.800 220.400 C 332.133 220.400,332.400 220.375,332.400 219.600 C 332.400 219.160,332.310 218.800,332.200 218.800 C 332.090 218.800,332.000 219.070,332.000 219.400 M224.328 221.000 C 224.763 221.873,226.249 223.309,227.200 223.775 C 227.530 223.937,227.351 223.705,226.801 223.259 C 226.252 222.813,225.381 221.942,224.866 221.324 C 224.331 220.683,224.100 220.544,224.328 221.000 M189.051 223.340 C 187.980 224.407,187.440 225.097,187.851 224.873 C 188.728 224.396,191.426 221.661,191.173 221.506 C 191.078 221.448,190.123 222.273,189.051 223.340 M187.281 222.572 C 185.423 223.885,185.162 224.261,186.731 223.362 C 187.463 222.943,188.250 222.375,188.480 222.100 C 189.071 221.393,188.793 221.502,187.281 222.572 M311.000 223.200 C 310.659 223.860,310.469 224.400,310.579 224.400 C 310.689 224.400,311.059 223.860,311.400 223.200 C 311.741 222.540,311.931 222.000,311.821 222.000 C 311.711 222.000,311.341 222.540,311.000 223.200 M318.923 222.299 C 321.741 222.368,326.241 222.368,328.923 222.299 C 331.605 222.230,329.300 222.173,323.800 222.173 C 318.300 222.174,316.105 222.230,318.923 222.299 M248.575 223.700 L 247.400 225.000 248.700 223.825 C 249.415 223.179,250.000 222.594,250.000 222.525 C 250.000 222.216,249.670 222.488,248.575 223.700 M179.300 225.076 C 179.685 225.176,180.315 225.176,180.700 225.076 C 181.085 224.975,180.770 224.893,180.000 224.893 C 179.230 224.893,178.915 224.975,179.300 225.076 M250.934 225.996 C 250.979 226.672,251.257 227.018,251.800 227.073 C 252.376 227.131,252.411 227.098,251.925 226.952 C 251.553 226.842,251.164 226.357,251.059 225.875 C 250.900 225.142,250.880 225.161,250.934 225.996 M354.600 225.480 C 363.548 225.764,371.909 225.774,371.739 225.500 C 371.637 225.335,366.928 225.237,361.276 225.283 C 355.624 225.329,352.620 225.417,354.600 225.480 M229.800 226.800 C 230.240 226.989,230.960 227.138,231.400 227.132 C 232.043 227.123,232.004 227.057,231.200 226.800 C 229.832 226.362,228.781 226.362,229.800 226.800 M242.200 226.800 C 241.696 227.017,241.622 227.144,242.000 227.144 C 242.330 227.144,242.960 226.989,243.400 226.800 C 243.904 226.583,243.978 226.456,243.600 226.456 C 243.270 226.456,242.640 226.611,242.200 226.800 M177.700 227.087 C 178.305 227.178,179.295 227.178,179.900 227.087 C 180.505 226.995,180.010 226.920,178.800 226.920 C 177.590 226.920,177.095 226.995,177.700 227.087 M235.907 227.490 C 236.626 227.579,237.706 227.577,238.307 227.486 C 238.908 227.395,238.320 227.322,237.000 227.324 C 235.680 227.326,235.188 227.401,235.907 227.490 M133.026 237.100 C 132.162 238.205,132.093 238.390,132.763 237.804 C 133.565 237.104,134.623 235.600,134.314 235.600 C 134.251 235.600,133.672 236.275,133.026 237.100 M134.581 239.700 L 133.000 241.400 134.700 239.819 C 136.281 238.348,136.584 238.000,136.281 238.000 C 136.216 238.000,135.451 238.765,134.581 239.700 M45.469 243.500 C 60.467 243.558,85.127 243.558,100.269 243.500 C 115.411 243.442,103.140 243.394,73.000 243.394 C 42.860 243.394,30.471 243.442,45.469 243.500 " stroke="none" fill="#747474" fill-rule="evenodd"></path></g></svg>